# xmcd
#
# Track frame offsets:
#	150
#	4956
#	8472
#	28918
#	49671
#	54914
#	72103
#	89753
#	107424
#	109167
#	111170
#	114906
#	117029
#	120909
#	123013
#	141533
#	160308
#	178950
#	197742
#	198977
#	200959
#	202997
#	204610
#	219364
#	220712
#	227202
#	233885
#	235430
#	238340
#	241238
#	244334
#	248644
#	253132
#	255797
#	263698
#
# Disc length: 3623 seconds
#
# Revision: 0
# Processed by: cddbd v1.5.1PL2 Copyright (c) Steve Scherf et al.
# Submitted via: EasyCDDAExtractor 9.0.0.1
#
DISCID=f50e2523
DTITLE=Guitar Techniques - July 1999 - GTC34
DYEAR=1999
DGENRE=Blues
TTITLE0=Introduction and Tuning Notes
TTITLE1=Rock - The Rolling Stones - Angie - Introduction
TTITLE2=Rock - The Rolling Stones - Angie - Full Track
TTITLE3=Rock - The Rolling Stones - Angie - Backing Track
TTITLE4=blues - ZZ Top - Jesus Just Left Chicago - Introduction
TTITLE5=blues - ZZ Top - Jesus Just Left Chicago - Full Track
TTITLE6=blues - ZZ Top - Jesus Just Left Chicago - Backing Track 1
TTITLE7=blues - ZZ Top - Jesus Just Left Chicago - Backing Track 2
TTITLE8=blues - Robert Cray - Porch Light - Introduction
TTITLE9=blues - Robert Cray - Porch Light - Solo 1
TTITLE10=blues - Robert Cray - Porch Light - Solo 2
TTITLE11=blues - Robert Cray - Porch Light - Backing Track 1
TTITLE12=blues - Robert Cray - Porch Light - Backing Track 2
TTITLE13=blues - Kenny Wayne Shepherd - Blue On Black - Introduction
TTITLE14=blues - Kenny Wayne Shepherd - Blue On Black - Full Track
TTITLE15=blues - Kenny Wayne Shepherd - Blue On Black - Backing Track 1
TTITLE16=blues - Kenny Wayne Shepherd - Blue On Black - Backing Track 2
TTITLE17=blues - Kenny Wayne Shepherd - Blue On Black - Backing Track 3
TTITLE18=jazz - Martin Taylor - Soloing over a Static Chordal Vamp - Introduct
TTITLE18=ion
TTITLE19=jazz - Martin Taylor - Soloing over a Static Chordal Vamp - Solo 1
TTITLE20=jazz - Martin Taylor - Soloing over a Static Chordal Vamp - Solo 2
TTITLE21=acoustic - Davey Graham - Anji - Introduction
TTITLE22=acoustic - Davey Graham - Anji - Full Track
TTITLE23=rock - Chordal Tapping - Introduction
TTITLE24=rock - Chordal Tapping - Full Track
TTITLE25=rock - Chordal Tapping - Backing Track
TTITLE26=rock - Soloing using the Major Scale - Introduction
TTITLE27=rock - Soloing using the Major Scale - Full Track
TTITLE28=rock - Soloing using the Major Scale - Backing Track
TTITLE29=country - String Bending - Introduction
TTITLE30=country - String Bending - Full Track
TTITLE31=country - String Bending - Backing Track
TTITLE32=beginners - Beginners Blues - Introduction
TTITLE33=beginners - Beginners Blues - Full Track
TTITLE34=beginners - Beginners Blues - Backing Track
EXTD=
EXTT0=
EXTT1=
EXTT2=
EXTT3=
EXTT4=
EXTT5=
EXTT6=
EXTT7=
EXTT8=
EXTT9=
EXTT10=
EXTT11=
EXTT12=
EXTT13=
EXTT14=
EXTT15=
EXTT16=
EXTT17=
EXTT18=
EXTT19=
EXTT20=
EXTT21=
EXTT22=
EXTT23=
EXTT24=
EXTT25=
EXTT26=
EXTT27=
EXTT28=
EXTT29=
EXTT30=
EXTT31=
EXTT32=
EXTT33=
EXTT34=
PLAYORDER=
